<mxfile host="app.diagrams.net" modified="2024-01-18T06:26:29.348Z" agent="Mozilla/5.0 (Windows NT 10.0; Win64; x64) AppleWebKit/537.36 (KHTML, like Gecko) Chrome/120.0.0.0 Safari/537.36 Edg/120.0.0.0" etag="1A2EEFJvTaUkCYvaS7rE" version="22.1.18" type="github" pages="3">
  <diagram name="Page-1" id="7e0a89b8-554c-2b80-1dc8-d5c74ca68de4">
    <mxGraphModel dx="1188" dy="798" grid="0" gridSize="10" guides="1" tooltips="1" connect="1" arrows="1" fold="1" page="0" pageScale="1" pageWidth="1169" pageHeight="827" background="#000000" math="0" shadow="0">
      <root>
        <mxCell id="0" />
        <mxCell id="1" parent="0" />
        <mxCell id="E2WN5ak8Cf_rjjWAEGz9-94" style="edgeStyle=orthogonalEdgeStyle;rounded=1;orthogonalLoop=1;jettySize=auto;html=1;entryX=0;entryY=0.5;entryDx=0;entryDy=0;labelBackgroundColor=none;fontColor=default;strokeColor=#FFFFFF;" parent="1" source="E2WN5ak8Cf_rjjWAEGz9-2" target="E2WN5ak8Cf_rjjWAEGz9-26" edge="1">
          <mxGeometry relative="1" as="geometry">
            <Array as="points">
              <mxPoint x="320" y="176" />
            </Array>
          </mxGeometry>
        </mxCell>
        <mxCell id="E2WN5ak8Cf_rjjWAEGz9-95" style="edgeStyle=orthogonalEdgeStyle;rounded=1;orthogonalLoop=1;jettySize=auto;html=1;entryX=0.5;entryY=0;entryDx=0;entryDy=0;labelBackgroundColor=none;fontColor=default;strokeColor=#FFFFFF;" parent="1" source="E2WN5ak8Cf_rjjWAEGz9-2" target="E2WN5ak8Cf_rjjWAEGz9-33" edge="1">
          <mxGeometry relative="1" as="geometry">
            <Array as="points">
              <mxPoint x="380" y="216" />
              <mxPoint x="620" y="216" />
            </Array>
          </mxGeometry>
        </mxCell>
        <mxCell id="E2WN5ak8Cf_rjjWAEGz9-96" style="edgeStyle=orthogonalEdgeStyle;rounded=1;orthogonalLoop=1;jettySize=auto;html=1;entryX=0.5;entryY=0;entryDx=0;entryDy=0;labelBackgroundColor=none;fontColor=default;strokeColor=#FFFFFF;" parent="1" source="E2WN5ak8Cf_rjjWAEGz9-2" target="E2WN5ak8Cf_rjjWAEGz9-34" edge="1">
          <mxGeometry relative="1" as="geometry">
            <Array as="points">
              <mxPoint x="350" y="196" />
              <mxPoint x="780" y="196" />
            </Array>
          </mxGeometry>
        </mxCell>
        <mxCell id="E2WN5ak8Cf_rjjWAEGz9-2" value="12V Kurşun Asit Batarya" style="rounded=1;whiteSpace=wrap;html=1;labelBackgroundColor=none;fillColor=#647687;strokeColor=#314354;fontColor=#ffffff;" parent="1" vertex="1">
          <mxGeometry x="290" y="256" width="120" height="80" as="geometry" />
        </mxCell>
        <mxCell id="E2WN5ak8Cf_rjjWAEGz9-3" value="9V Pil&lt;br&gt;(Yedek besleme amacıyla kullanılıyor)" style="rounded=1;whiteSpace=wrap;html=1;labelBackgroundColor=none;fillColor=#647687;strokeColor=#314354;fontColor=#ffffff;" parent="1" vertex="1">
          <mxGeometry x="430" y="256" width="120" height="80" as="geometry" />
        </mxCell>
        <mxCell id="E2WN5ak8Cf_rjjWAEGz9-23" style="edgeStyle=orthogonalEdgeStyle;rounded=1;orthogonalLoop=1;jettySize=auto;html=1;entryX=0.5;entryY=0;entryDx=0;entryDy=0;labelBackgroundColor=none;fontColor=default;strokeColor=#FFFFFF;" parent="1" source="E2WN5ak8Cf_rjjWAEGz9-4" target="E2WN5ak8Cf_rjjWAEGz9-22" edge="1">
          <mxGeometry relative="1" as="geometry" />
        </mxCell>
        <mxCell id="E2WN5ak8Cf_rjjWAEGz9-4" value="Röle Tetikleme devresi" style="rounded=1;whiteSpace=wrap;html=1;labelBackgroundColor=none;fillColor=#647687;strokeColor=#314354;fontColor=#ffffff;" parent="1" vertex="1">
          <mxGeometry x="360" y="416" width="120" height="80" as="geometry" />
        </mxCell>
        <mxCell id="E2WN5ak8Cf_rjjWAEGz9-11" style="edgeStyle=orthogonalEdgeStyle;rounded=1;orthogonalLoop=1;jettySize=auto;html=1;entryX=0.25;entryY=0;entryDx=0;entryDy=0;labelBackgroundColor=none;fontColor=default;strokeColor=#FFFFFF;" parent="1" source="E2WN5ak8Cf_rjjWAEGz9-2" target="E2WN5ak8Cf_rjjWAEGz9-4" edge="1">
          <mxGeometry relative="1" as="geometry" />
        </mxCell>
        <mxCell id="E2WN5ak8Cf_rjjWAEGz9-12" style="edgeStyle=orthogonalEdgeStyle;rounded=1;orthogonalLoop=1;jettySize=auto;html=1;entryX=0.75;entryY=0;entryDx=0;entryDy=0;labelBackgroundColor=none;fontColor=default;strokeColor=#FFFFFF;" parent="1" source="E2WN5ak8Cf_rjjWAEGz9-3" target="E2WN5ak8Cf_rjjWAEGz9-4" edge="1">
          <mxGeometry relative="1" as="geometry" />
        </mxCell>
        <mxCell id="E2WN5ak8Cf_rjjWAEGz9-101" style="edgeStyle=orthogonalEdgeStyle;rounded=1;orthogonalLoop=1;jettySize=auto;html=1;labelBackgroundColor=none;fontColor=default;strokeColor=#FFFFFF;" parent="1" source="E2WN5ak8Cf_rjjWAEGz9-13" target="E2WN5ak8Cf_rjjWAEGz9-49" edge="1">
          <mxGeometry relative="1" as="geometry" />
        </mxCell>
        <mxCell id="E2WN5ak8Cf_rjjWAEGz9-113" style="edgeStyle=orthogonalEdgeStyle;rounded=1;orthogonalLoop=1;jettySize=auto;html=1;fontFamily=Helvetica;fontSize=11;fontColor=default;labelBackgroundColor=none;strokeColor=#FFFFFF;" parent="1" source="E2WN5ak8Cf_rjjWAEGz9-13" edge="1">
          <mxGeometry relative="1" as="geometry">
            <mxPoint x="480" y="456" as="targetPoint" />
          </mxGeometry>
        </mxCell>
        <mxCell id="mTHOk1BernN7sZ2neYyc-3" style="edgeStyle=orthogonalEdgeStyle;rounded=0;orthogonalLoop=1;jettySize=auto;html=1;" parent="1" source="E2WN5ak8Cf_rjjWAEGz9-13" edge="1">
          <mxGeometry relative="1" as="geometry">
            <mxPoint x="938.7674418604652" y="527" as="targetPoint" />
          </mxGeometry>
        </mxCell>
        <mxCell id="mTHOk1BernN7sZ2neYyc-4" style="edgeStyle=orthogonalEdgeStyle;rounded=0;orthogonalLoop=1;jettySize=auto;html=1;entryX=0.5;entryY=0;entryDx=0;entryDy=0;strokeColor=#FFFFFF;" parent="1" source="E2WN5ak8Cf_rjjWAEGz9-13" target="E2WN5ak8Cf_rjjWAEGz9-54" edge="1">
          <mxGeometry relative="1" as="geometry" />
        </mxCell>
        <mxCell id="E2WN5ak8Cf_rjjWAEGz9-13" value="Mikroişlemci&lt;br&gt;(Ardunio Nano)" style="rounded=1;whiteSpace=wrap;html=1;labelBackgroundColor=none;fillColor=#647687;strokeColor=#314354;fontColor=#ffffff;" parent="1" vertex="1">
          <mxGeometry x="720" y="416" width="120" height="80" as="geometry" />
        </mxCell>
        <mxCell id="E2WN5ak8Cf_rjjWAEGz9-67" style="edgeStyle=orthogonalEdgeStyle;rounded=1;orthogonalLoop=1;jettySize=auto;html=1;labelBackgroundColor=none;fontColor=default;strokeColor=#FFFFFF;" parent="1" source="E2WN5ak8Cf_rjjWAEGz9-22" target="E2WN5ak8Cf_rjjWAEGz9-24" edge="1">
          <mxGeometry relative="1" as="geometry" />
        </mxCell>
        <mxCell id="E2WN5ak8Cf_rjjWAEGz9-22" value="9-12V&#39;dan 5V Regulator" style="rounded=1;whiteSpace=wrap;html=1;labelBackgroundColor=none;fillColor=#647687;strokeColor=#314354;fontColor=#ffffff;" parent="1" vertex="1">
          <mxGeometry x="360" y="536" width="120" height="80" as="geometry" />
        </mxCell>
        <mxCell id="E2WN5ak8Cf_rjjWAEGz9-24" value="5V&#39;dan 3V&lt;br&gt;&amp;nbsp;Regulator" style="rounded=1;whiteSpace=wrap;html=1;labelBackgroundColor=none;fillColor=#647687;strokeColor=#314354;fontColor=#ffffff;" parent="1" vertex="1">
          <mxGeometry x="360" y="656" width="120" height="80" as="geometry" />
        </mxCell>
        <mxCell id="E2WN5ak8Cf_rjjWAEGz9-93" style="edgeStyle=orthogonalEdgeStyle;rounded=1;orthogonalLoop=1;jettySize=auto;html=1;entryX=0.5;entryY=0;entryDx=0;entryDy=0;labelBackgroundColor=none;fontColor=default;strokeColor=#FFFFFF;" parent="1" source="E2WN5ak8Cf_rjjWAEGz9-26" target="E2WN5ak8Cf_rjjWAEGz9-35" edge="1">
          <mxGeometry relative="1" as="geometry" />
        </mxCell>
        <mxCell id="E2WN5ak8Cf_rjjWAEGz9-26" value="Yük" style="rounded=1;whiteSpace=wrap;html=1;labelBackgroundColor=none;fillColor=#647687;strokeColor=#314354;fontColor=#ffffff;" parent="1" vertex="1">
          <mxGeometry x="880" y="136" width="120" height="80" as="geometry" />
        </mxCell>
        <mxCell id="E2WN5ak8Cf_rjjWAEGz9-98" style="edgeStyle=orthogonalEdgeStyle;rounded=1;orthogonalLoop=1;jettySize=auto;html=1;exitX=0.5;exitY=1;exitDx=0;exitDy=0;entryX=0.25;entryY=0;entryDx=0;entryDy=0;labelBackgroundColor=none;fontColor=default;strokeColor=#FFFFFF;" parent="1" source="E2WN5ak8Cf_rjjWAEGz9-33" target="E2WN5ak8Cf_rjjWAEGz9-13" edge="1">
          <mxGeometry relative="1" as="geometry" />
        </mxCell>
        <mxCell id="E2WN5ak8Cf_rjjWAEGz9-33" value="Gerilim Ölçümü" style="rounded=1;whiteSpace=wrap;html=1;labelBackgroundColor=none;fillColor=#647687;strokeColor=#314354;fontColor=#ffffff;" parent="1" vertex="1">
          <mxGeometry x="560" y="256" width="120" height="80" as="geometry" />
        </mxCell>
        <mxCell id="E2WN5ak8Cf_rjjWAEGz9-99" style="edgeStyle=orthogonalEdgeStyle;rounded=1;orthogonalLoop=1;jettySize=auto;html=1;labelBackgroundColor=none;fontColor=default;strokeColor=#FFFFFF;" parent="1" source="E2WN5ak8Cf_rjjWAEGz9-34" target="E2WN5ak8Cf_rjjWAEGz9-13" edge="1">
          <mxGeometry relative="1" as="geometry" />
        </mxCell>
        <mxCell id="E2WN5ak8Cf_rjjWAEGz9-34" value="Sıcaklık Ölçümü" style="rounded=1;whiteSpace=wrap;html=1;labelBackgroundColor=none;fillColor=#647687;strokeColor=#314354;fontColor=#ffffff;" parent="1" vertex="1">
          <mxGeometry x="720" y="256" width="120" height="80" as="geometry" />
        </mxCell>
        <mxCell id="E2WN5ak8Cf_rjjWAEGz9-100" style="edgeStyle=orthogonalEdgeStyle;rounded=1;orthogonalLoop=1;jettySize=auto;html=1;entryX=0.75;entryY=0;entryDx=0;entryDy=0;labelBackgroundColor=none;fontColor=default;strokeColor=#FFFFFF;" parent="1" source="E2WN5ak8Cf_rjjWAEGz9-35" target="E2WN5ak8Cf_rjjWAEGz9-13" edge="1">
          <mxGeometry relative="1" as="geometry">
            <Array as="points">
              <mxPoint x="940" y="376" />
              <mxPoint x="810" y="376" />
            </Array>
          </mxGeometry>
        </mxCell>
        <mxCell id="E2WN5ak8Cf_rjjWAEGz9-35" value="Akım Ölçümü" style="rounded=1;whiteSpace=wrap;html=1;labelBackgroundColor=none;fillColor=#647687;strokeColor=#314354;fontColor=#ffffff;" parent="1" vertex="1">
          <mxGeometry x="880" y="256" width="120" height="80" as="geometry" />
        </mxCell>
        <mxCell id="shVuoES4bN3eSGInZ4Uj-4" style="edgeStyle=orthogonalEdgeStyle;rounded=1;orthogonalLoop=1;jettySize=auto;html=1;exitX=0.5;exitY=1;exitDx=0;exitDy=0;entryX=0.5;entryY=0;entryDx=0;entryDy=0;labelBackgroundColor=none;strokeColor=#FFFFFF;fontColor=default;" parent="1" source="E2WN5ak8Cf_rjjWAEGz9-49" target="E2WN5ak8Cf_rjjWAEGz9-52" edge="1">
          <mxGeometry relative="1" as="geometry" />
        </mxCell>
        <mxCell id="E2WN5ak8Cf_rjjWAEGz9-49" value="SD Card Devresi" style="rounded=1;whiteSpace=wrap;html=1;labelBackgroundColor=none;fillColor=#647687;strokeColor=#314354;fontColor=#ffffff;" parent="1" vertex="1">
          <mxGeometry x="720" y="536" width="120" height="80" as="geometry" />
        </mxCell>
        <mxCell id="shVuoES4bN3eSGInZ4Uj-7" style="edgeStyle=orthogonalEdgeStyle;rounded=1;orthogonalLoop=1;jettySize=auto;html=1;exitX=1;exitY=0.5;exitDx=0;exitDy=0;entryX=0;entryY=0.5;entryDx=0;entryDy=0;strokeColor=#FFFFFF;labelBackgroundColor=none;fontColor=default;" parent="1" source="E2WN5ak8Cf_rjjWAEGz9-52" target="E2WN5ak8Cf_rjjWAEGz9-53" edge="1">
          <mxGeometry relative="1" as="geometry" />
        </mxCell>
        <mxCell id="E2WN5ak8Cf_rjjWAEGz9-52" value="Bluetooth Modulü&lt;br style=&quot;border-color: var(--border-color);&quot;&gt;(HC-05)" style="rounded=1;whiteSpace=wrap;html=1;labelBackgroundColor=none;fillColor=#647687;strokeColor=#314354;fontColor=#ffffff;" parent="1" vertex="1">
          <mxGeometry x="720" y="656" width="120" height="80" as="geometry" />
        </mxCell>
        <mxCell id="E2WN5ak8Cf_rjjWAEGz9-53" value="Mobile Telefon&lt;br&gt;(Kullanıcı Arayüzü İçin)" style="rounded=1;whiteSpace=wrap;html=1;labelBackgroundColor=none;fillColor=#647687;strokeColor=#314354;fontColor=#ffffff;" parent="1" vertex="1">
          <mxGeometry x="880" y="656" width="120" height="80" as="geometry" />
        </mxCell>
        <mxCell id="E2WN5ak8Cf_rjjWAEGz9-54" value="OLED Ekran&lt;br&gt;(Kullanıcı Arayüzü İçin)" style="rounded=1;whiteSpace=wrap;html=1;labelBackgroundColor=none;fillColor=#647687;strokeColor=#314354;fontColor=#ffffff;" parent="1" vertex="1">
          <mxGeometry x="880" y="536" width="120" height="80" as="geometry" />
        </mxCell>
        <mxCell id="E2WN5ak8Cf_rjjWAEGz9-86" value="rr" style="strokeWidth=2;html=1;shape=mxgraph.flowchart.annotation_2;align=center;labelPosition=right;pointerEvents=1;rounded=1;labelBackgroundColor=none;endArrow=classic;fillColor=#BC6C25;strokeColor=#FFFFFF;fontColor=default;fontSize=11;rotation=-180;" parent="1" vertex="1">
          <mxGeometry x="480" y="576" width="50" height="100" as="geometry" />
        </mxCell>
        <mxCell id="E2WN5ak8Cf_rjjWAEGz9-92" value="&lt;font style=&quot;font-size: 10px;&quot;&gt;Devredeyi ve modülleri beslemek amacıyla kullanıyor&lt;/font&gt;" style="text;whiteSpace=wrap;html=1;align=center;rounded=1;fontSize=10;verticalAlign=middle;labelBackgroundColor=none;fontColor=#FEFAE0;" parent="1" vertex="1">
          <mxGeometry x="530" y="606" width="120" height="40" as="geometry" />
        </mxCell>
        <mxCell id="E2WN5ak8Cf_rjjWAEGz9-110" value="Kurşun asit bataryanın SoC değeri %25 altına düşerse devreyi Yedek besleme (Pil) üzerinden besleme için tetikleme sinyali gönderir" style="text;whiteSpace=wrap;html=1;fontSize=10;fontFamily=Helvetica;labelBackgroundColor=none;align=center;verticalAlign=middle;rounded=1;fontColor=#FEFAE0;" parent="1" vertex="1">
          <mxGeometry x="470" y="416" width="240" height="35" as="geometry" />
        </mxCell>
        <mxCell id="E2WN5ak8Cf_rjjWAEGz9-124" value="Ananlog olarak 100 kere olarak örnekleme alma ve ortalamasını yazdırma" style="text;whiteSpace=wrap;html=1;fontSize=10;fontFamily=Helvetica;labelBackgroundColor=none;align=center;verticalAlign=middle;rounded=1;fontColor=#FEFAE0;" parent="1" vertex="1">
          <mxGeometry x="820" y="378" width="240" height="35" as="geometry" />
        </mxCell>
        <mxCell id="mTHOk1BernN7sZ2neYyc-2" value="Ananlog olarak 100 kere olarak örnekleme alma ve ortalamasını yazdırma" style="text;whiteSpace=wrap;html=1;fontSize=10;fontFamily=Helvetica;labelBackgroundColor=none;align=center;verticalAlign=middle;rounded=1;fontColor=#FEFAE0;" parent="1" vertex="1">
          <mxGeometry x="485" y="378" width="240" height="35" as="geometry" />
        </mxCell>
        <mxCell id="mTHOk1BernN7sZ2neYyc-5" value="Ölçülen veriler önce SD kart devresine sonra kullanıcı arayzlerine yazdırılır" style="text;whiteSpace=wrap;html=1;fontSize=10;fontFamily=Helvetica;labelBackgroundColor=none;align=center;verticalAlign=middle;rounded=1;fontColor=#FEFAE0;" parent="1" vertex="1">
          <mxGeometry x="533" y="496" width="240" height="35" as="geometry" />
        </mxCell>
        <mxCell id="mTHOk1BernN7sZ2neYyc-6" value="Ölcülen değer üzerinden yapılan karşılaştırmalar ve SoC değerinin hesabı yapılır ve bunlar bir değişken olarak kaydedilir." style="text;whiteSpace=wrap;html=1;fontSize=10;fontFamily=Helvetica;labelBackgroundColor=none;align=center;verticalAlign=middle;rounded=1;fontColor=#FEFAE0;" parent="1" vertex="1">
          <mxGeometry x="847" y="416" width="240" height="35" as="geometry" />
        </mxCell>
      </root>
    </mxGraphModel>
  </diagram>
  <diagram id="jS_w6_mh5bCWDTmtUfou" name="Page-2">
    <mxGraphModel dx="2036" dy="1367" grid="0" gridSize="10" guides="1" tooltips="1" connect="1" arrows="1" fold="1" page="1" pageScale="1" pageWidth="2336" pageHeight="1654" background="#000000" math="0" shadow="0">
      <root>
        <mxCell id="0" />
        <mxCell id="1" parent="0" />
        <mxCell id="yZFexxeSMaX7Nvz6s_aD-2" style="edgeStyle=none;curved=1;rounded=0;orthogonalLoop=1;jettySize=auto;html=1;entryX=0.5;entryY=0;entryDx=0;entryDy=0;fontSize=22;startSize=8;endSize=8;fontFamily=Times New Roman;strokeColor=#FFFFFF;" parent="1" source="ZHT-fiRbkquQxCSZRVh8-2" target="ZHT-fiRbkquQxCSZRVh8-3" edge="1">
          <mxGeometry relative="1" as="geometry" />
        </mxCell>
        <mxCell id="ZHT-fiRbkquQxCSZRVh8-2" value=" Başlangıç ayarlarını yap pinleri, cihazları ve kütüphaneleri başlat" style="rounded=1;whiteSpace=wrap;html=1;labelBackgroundColor=none;fillColor=#647687;strokeColor=#FFFFFF;fontColor=#ffffff;fontSize=22;fontFamily=Times New Roman;" parent="1" vertex="1">
          <mxGeometry x="871" y="190" width="360" height="80" as="geometry" />
        </mxCell>
        <mxCell id="yZFexxeSMaX7Nvz6s_aD-5" style="edgeStyle=none;curved=1;rounded=0;orthogonalLoop=1;jettySize=auto;html=1;entryX=0.5;entryY=0;entryDx=0;entryDy=0;fontSize=22;startSize=8;endSize=8;fontFamily=Times New Roman;strokeColor=#FFFFFF;" parent="1" source="ZHT-fiRbkquQxCSZRVh8-3" target="yZFexxeSMaX7Nvz6s_aD-4" edge="1">
          <mxGeometry relative="1" as="geometry" />
        </mxCell>
        <mxCell id="ZHT-fiRbkquQxCSZRVh8-3" value="OLED ekranı başlat ve ilk bilgileri göster" style="rounded=1;whiteSpace=wrap;html=1;labelBackgroundColor=none;fillColor=#647687;strokeColor=#FFFFFF;fontColor=#ffffff;fontSize=22;fontFamily=Times New Roman;" parent="1" vertex="1">
          <mxGeometry x="951" y="310" width="200" height="80" as="geometry" />
        </mxCell>
        <mxCell id="ZHT-fiRbkquQxCSZRVh8-6" value="Gerilim bölücü üzerinden voltaj ölç " style="rounded=1;whiteSpace=wrap;html=1;labelBackgroundColor=none;fillColor=#647687;strokeColor=#FFFFFF;fontColor=#ffffff;fontSize=22;fontFamily=Times New Roman;" parent="1" vertex="1">
          <mxGeometry x="776" y="546" width="160" height="80" as="geometry" />
        </mxCell>
        <mxCell id="j0v3E6LCTyV4tpa0sWxP-5" style="edgeStyle=none;curved=1;rounded=0;orthogonalLoop=1;jettySize=auto;html=1;entryX=0.5;entryY=0;entryDx=0;entryDy=0;fontSize=22;startSize=8;endSize=8;fontFamily=Times New Roman;strokeColor=#FFFFFF;" parent="1" source="ZHT-fiRbkquQxCSZRVh8-7" target="ZHT-fiRbkquQxCSZRVh8-11" edge="1">
          <mxGeometry relative="1" as="geometry" />
        </mxCell>
        <mxCell id="ZHT-fiRbkquQxCSZRVh8-7" value="DS18B20 sensöründen&amp;nbsp; sıcaklık ölç   " style="rounded=1;whiteSpace=wrap;html=1;labelBackgroundColor=none;fillColor=#647687;strokeColor=#FFFFFF;fontColor=#ffffff;fontSize=22;fontFamily=Times New Roman;" parent="1" vertex="1">
          <mxGeometry x="971" y="546" width="160" height="80" as="geometry" />
        </mxCell>
        <mxCell id="ZHT-fiRbkquQxCSZRVh8-8" value="ACS712 sensöründen akım ölç  " style="rounded=1;whiteSpace=wrap;html=1;labelBackgroundColor=none;fillColor=#647687;strokeColor=#FFFFFF;fontColor=#ffffff;fontSize=22;fontFamily=Times New Roman;" parent="1" vertex="1">
          <mxGeometry x="1166" y="546" width="160" height="80" as="geometry" />
        </mxCell>
        <mxCell id="j0v3E6LCTyV4tpa0sWxP-10" style="edgeStyle=elbowEdgeStyle;rounded=0;orthogonalLoop=1;jettySize=auto;html=1;fontSize=22;startSize=8;endSize=8;elbow=vertical;fontFamily=Times New Roman;strokeColor=#FFFFFF;" parent="1" source="ZHT-fiRbkquQxCSZRVh8-9" target="j0v3E6LCTyV4tpa0sWxP-9" edge="1">
          <mxGeometry relative="1" as="geometry" />
        </mxCell>
        <mxCell id="ZHT-fiRbkquQxCSZRVh8-9" value=" SD kart durumunu kontrol et  " style="rounded=1;whiteSpace=wrap;html=1;labelBackgroundColor=none;fillColor=#647687;strokeColor=#FFFFFF;fontColor=#ffffff;fontSize=22;fontFamily=Times New Roman;" parent="1" vertex="1">
          <mxGeometry x="831" y="746" width="200" height="80" as="geometry" />
        </mxCell>
        <mxCell id="j0v3E6LCTyV4tpa0sWxP-19" style="edgeStyle=elbowEdgeStyle;rounded=0;orthogonalLoop=1;jettySize=auto;html=1;entryX=0.5;entryY=0;entryDx=0;entryDy=0;fontSize=22;startSize=8;endSize=8;elbow=vertical;fontFamily=Times New Roman;strokeColor=#FFFFFF;" parent="1" source="ZHT-fiRbkquQxCSZRVh8-10" target="j0v3E6LCTyV4tpa0sWxP-17" edge="1">
          <mxGeometry relative="1" as="geometry" />
        </mxCell>
        <mxCell id="ZHT-fiRbkquQxCSZRVh8-10" value=" Verileri OLED ekranında göster " style="rounded=1;whiteSpace=wrap;html=1;labelBackgroundColor=none;fillColor=#647687;strokeColor=#FFFFFF;fontColor=#ffffff;fontSize=22;fontFamily=Times New Roman;" parent="1" vertex="1">
          <mxGeometry x="771" y="986" width="160" height="80" as="geometry" />
        </mxCell>
        <mxCell id="j0v3E6LCTyV4tpa0sWxP-6" style="edgeStyle=elbowEdgeStyle;rounded=0;orthogonalLoop=1;jettySize=auto;html=1;entryX=0.5;entryY=0;entryDx=0;entryDy=0;fontSize=22;startSize=8;endSize=8;elbow=vertical;fontFamily=Times New Roman;strokeColor=#FFFFFF;" parent="1" source="ZHT-fiRbkquQxCSZRVh8-11" target="ZHT-fiRbkquQxCSZRVh8-9" edge="1">
          <mxGeometry relative="1" as="geometry">
            <Array as="points">
              <mxPoint x="1011" y="706" />
            </Array>
          </mxGeometry>
        </mxCell>
        <mxCell id="j0v3E6LCTyV4tpa0sWxP-7" style="edgeStyle=elbowEdgeStyle;rounded=0;orthogonalLoop=1;jettySize=auto;html=1;entryX=0.5;entryY=0;entryDx=0;entryDy=0;fontSize=22;startSize=8;endSize=8;elbow=vertical;fontFamily=Times New Roman;strokeColor=#FFFFFF;" parent="1" source="ZHT-fiRbkquQxCSZRVh8-11" target="ZHT-fiRbkquQxCSZRVh8-14" edge="1">
          <mxGeometry relative="1" as="geometry">
            <Array as="points">
              <mxPoint x="1131" y="706" />
            </Array>
          </mxGeometry>
        </mxCell>
        <mxCell id="ZHT-fiRbkquQxCSZRVh8-11" value="Moda bağlı olarak röleyi tetikle  " style="rounded=1;whiteSpace=wrap;html=1;labelBackgroundColor=none;fillColor=#647687;strokeColor=#FFFFFF;fontColor=#ffffff;fontSize=22;fontFamily=Times New Roman;" parent="1" vertex="1">
          <mxGeometry x="871" y="666" width="360" height="40" as="geometry" />
        </mxCell>
        <mxCell id="j0v3E6LCTyV4tpa0sWxP-18" style="edgeStyle=none;curved=1;rounded=0;orthogonalLoop=1;jettySize=auto;html=1;entryX=0.5;entryY=0;entryDx=0;entryDy=0;fontSize=22;startSize=8;endSize=8;fontFamily=Times New Roman;strokeColor=#FFFFFF;" parent="1" source="ZHT-fiRbkquQxCSZRVh8-12" target="j0v3E6LCTyV4tpa0sWxP-17" edge="1">
          <mxGeometry relative="1" as="geometry" />
        </mxCell>
        <mxCell id="ZHT-fiRbkquQxCSZRVh8-12" value="Verileri SD karta yaz             " style="rounded=1;whiteSpace=wrap;html=1;labelBackgroundColor=none;fillColor=#647687;strokeColor=#FFFFFF;fontColor=#ffffff;fontSize=22;fontFamily=Times New Roman;" parent="1" vertex="1">
          <mxGeometry x="971" y="986" width="160" height="80" as="geometry" />
        </mxCell>
        <mxCell id="j0v3E6LCTyV4tpa0sWxP-20" style="edgeStyle=elbowEdgeStyle;rounded=0;orthogonalLoop=1;jettySize=auto;html=1;entryX=0.5;entryY=0;entryDx=0;entryDy=0;fontSize=22;startSize=8;endSize=8;elbow=vertical;fontFamily=Times New Roman;strokeColor=#FFFFFF;" parent="1" source="ZHT-fiRbkquQxCSZRVh8-13" target="j0v3E6LCTyV4tpa0sWxP-17" edge="1">
          <mxGeometry relative="1" as="geometry" />
        </mxCell>
        <mxCell id="ZHT-fiRbkquQxCSZRVh8-13" value=" Seri monitöre verileri gönder   " style="rounded=1;whiteSpace=wrap;html=1;labelBackgroundColor=none;fillColor=#647687;strokeColor=#FFFFFF;fontColor=#ffffff;fontSize=22;fontFamily=Times New Roman;" parent="1" vertex="1">
          <mxGeometry x="1171" y="986" width="160" height="80" as="geometry" />
        </mxCell>
        <mxCell id="j0v3E6LCTyV4tpa0sWxP-12" style="edgeStyle=elbowEdgeStyle;rounded=0;orthogonalLoop=1;jettySize=auto;html=1;fontSize=22;startSize=8;endSize=8;elbow=vertical;fontFamily=Times New Roman;strokeColor=#FFFFFF;" parent="1" source="ZHT-fiRbkquQxCSZRVh8-14" edge="1">
          <mxGeometry relative="1" as="geometry">
            <mxPoint x="1051" y="866" as="targetPoint" />
          </mxGeometry>
        </mxCell>
        <mxCell id="ZHT-fiRbkquQxCSZRVh8-14" value=" Bluetooth bağlantısı durumunu kontrol et  " style="rounded=1;whiteSpace=wrap;html=1;labelBackgroundColor=none;fillColor=#647687;strokeColor=#FFFFFF;fontColor=#ffffff;fontSize=22;fontFamily=Times New Roman;" parent="1" vertex="1">
          <mxGeometry x="1071" y="746" width="210" height="80" as="geometry" />
        </mxCell>
        <mxCell id="j0v3E6LCTyV4tpa0sWxP-14" style="edgeStyle=none;curved=1;rounded=0;orthogonalLoop=1;jettySize=auto;html=1;entryX=0.5;entryY=0;entryDx=0;entryDy=0;fontSize=22;startSize=8;endSize=8;fontFamily=Times New Roman;strokeColor=#FFFFFF;" parent="1" source="j0v3E6LCTyV4tpa0sWxP-9" target="ZHT-fiRbkquQxCSZRVh8-12" edge="1">
          <mxGeometry relative="1" as="geometry" />
        </mxCell>
        <mxCell id="j0v3E6LCTyV4tpa0sWxP-15" style="edgeStyle=elbowEdgeStyle;rounded=0;orthogonalLoop=1;jettySize=auto;html=1;entryX=0.5;entryY=0;entryDx=0;entryDy=0;fontSize=22;startSize=8;endSize=8;elbow=vertical;fontFamily=Times New Roman;strokeColor=#FFFFFF;" parent="1" source="j0v3E6LCTyV4tpa0sWxP-9" target="ZHT-fiRbkquQxCSZRVh8-13" edge="1">
          <mxGeometry relative="1" as="geometry">
            <Array as="points">
              <mxPoint x="1131" y="906" />
            </Array>
          </mxGeometry>
        </mxCell>
        <mxCell id="j0v3E6LCTyV4tpa0sWxP-9" value="SD kart, bluetooth bağlantısı hakkında durum bildirisi ver" style="rounded=1;whiteSpace=wrap;html=1;labelBackgroundColor=none;fillColor=#647687;strokeColor=#FFFFFF;fontColor=#ffffff;fontSize=22;fontFamily=Times New Roman;" parent="1" vertex="1">
          <mxGeometry x="871" y="866" width="360" height="80" as="geometry" />
        </mxCell>
        <mxCell id="j0v3E6LCTyV4tpa0sWxP-13" style="edgeStyle=elbowEdgeStyle;rounded=0;orthogonalLoop=1;jettySize=auto;html=1;entryX=0.483;entryY=-0.027;entryDx=0;entryDy=0;entryPerimeter=0;fontSize=22;startSize=8;endSize=8;elbow=vertical;fontFamily=Times New Roman;strokeColor=#FFFFFF;" parent="1" source="j0v3E6LCTyV4tpa0sWxP-9" target="ZHT-fiRbkquQxCSZRVh8-10" edge="1">
          <mxGeometry relative="1" as="geometry">
            <Array as="points">
              <mxPoint x="971" y="906" />
            </Array>
          </mxGeometry>
        </mxCell>
        <mxCell id="j0v3E6LCTyV4tpa0sWxP-17" value="Döngüye geri dön ölçüm alıp, veri yazdırmaya devam et" style="rounded=1;whiteSpace=wrap;html=1;labelBackgroundColor=none;fillColor=#647687;strokeColor=#FFFFFF;fontColor=#ffffff;fontSize=22;fontFamily=Times New Roman;" parent="1" vertex="1">
          <mxGeometry x="841" y="1106" width="420" height="80" as="geometry" />
        </mxCell>
        <mxCell id="yZFexxeSMaX7Nvz6s_aD-1" style="edgeStyle=none;curved=1;rounded=0;orthogonalLoop=1;jettySize=auto;html=1;exitX=1;exitY=1;exitDx=0;exitDy=0;fontSize=22;startSize=8;endSize=8;fontFamily=Times New Roman;strokeColor=#FFFFFF;" parent="1" source="ZHT-fiRbkquQxCSZRVh8-2" target="ZHT-fiRbkquQxCSZRVh8-2" edge="1">
          <mxGeometry relative="1" as="geometry" />
        </mxCell>
        <mxCell id="ItCk0VheNFwIK_0ZoeTq-7" style="edgeStyle=none;curved=1;rounded=0;orthogonalLoop=1;jettySize=auto;html=1;fontSize=12;startSize=8;endSize=8;strokeColor=#FFFFFF;" edge="1" parent="1" source="yZFexxeSMaX7Nvz6s_aD-4" target="ZHT-fiRbkquQxCSZRVh8-7">
          <mxGeometry relative="1" as="geometry">
            <mxPoint x="1050.9999999999995" y="407.9999999999998" as="targetPoint" />
          </mxGeometry>
        </mxCell>
        <mxCell id="ItCk0VheNFwIK_0ZoeTq-11" style="edgeStyle=elbowEdgeStyle;rounded=0;orthogonalLoop=1;jettySize=auto;html=1;entryX=0.5;entryY=0;entryDx=0;entryDy=0;fontSize=12;startSize=8;endSize=8;elbow=vertical;strokeColor=#FFFFFF;" edge="1" parent="1" source="yZFexxeSMaX7Nvz6s_aD-4" target="ZHT-fiRbkquQxCSZRVh8-8">
          <mxGeometry relative="1" as="geometry" />
        </mxCell>
        <mxCell id="yZFexxeSMaX7Nvz6s_aD-4" value="Düğme basılı değil mi kontrol et basılı değilse belirli bir süre sonra OLED ekranı uyku moduna geçir" style="rounded=1;whiteSpace=wrap;html=1;labelBackgroundColor=none;fillColor=#647687;strokeColor=#FFFFFF;fontColor=#ffffff;fontSize=22;fontFamily=Times New Roman;gradientColor=none;" parent="1" vertex="1">
          <mxGeometry x="791" y="413" width="520" height="80" as="geometry" />
        </mxCell>
        <mxCell id="ItCk0VheNFwIK_0ZoeTq-3" value="" style="edgeStyle=elbowEdgeStyle;elbow=horizontal;endArrow=classic;html=1;curved=0;rounded=0;endSize=8;startSize=8;fontSize=12;" edge="1" parent="1">
          <mxGeometry width="50" height="50" relative="1" as="geometry">
            <mxPoint x="703" y="592" as="sourcePoint" />
            <mxPoint x="753" y="542" as="targetPoint" />
          </mxGeometry>
        </mxCell>
        <mxCell id="ItCk0VheNFwIK_0ZoeTq-4" value="" style="edgeStyle=elbowEdgeStyle;elbow=horizontal;endArrow=classic;html=1;curved=0;rounded=0;endSize=8;startSize=8;fontSize=12;strokeColor=#FFFFFF;exitX=0;exitY=0.5;exitDx=0;exitDy=0;entryX=0;entryY=0.5;entryDx=0;entryDy=0;" edge="1" parent="1" source="j0v3E6LCTyV4tpa0sWxP-17" target="yZFexxeSMaX7Nvz6s_aD-4">
          <mxGeometry width="50" height="50" relative="1" as="geometry">
            <mxPoint x="684" y="569" as="sourcePoint" />
            <mxPoint x="971" y="447.9999999999998" as="targetPoint" />
            <Array as="points">
              <mxPoint x="686" y="549" />
            </Array>
          </mxGeometry>
        </mxCell>
        <mxCell id="ItCk0VheNFwIK_0ZoeTq-8" style="edgeStyle=elbowEdgeStyle;rounded=0;orthogonalLoop=1;jettySize=auto;html=1;entryX=0.5;entryY=0;entryDx=0;entryDy=0;fontSize=12;startSize=8;endSize=8;elbow=vertical;strokeColor=#FFFFFF;exitX=0.5;exitY=1;exitDx=0;exitDy=0;" edge="1" parent="1" source="yZFexxeSMaX7Nvz6s_aD-4" target="ZHT-fiRbkquQxCSZRVh8-6">
          <mxGeometry relative="1" as="geometry">
            <mxPoint x="1050.9999999999995" y="487.9999999999998" as="sourcePoint" />
          </mxGeometry>
        </mxCell>
      </root>
    </mxGraphModel>
  </diagram>
  <diagram name="Copy of Page-1" id="aoKc9A-pTvCPusFpaecu">
    <mxGraphModel dx="977" dy="584" grid="0" gridSize="10" guides="1" tooltips="1" connect="1" arrows="1" fold="1" page="0" pageScale="1" pageWidth="1169" pageHeight="827" background="#000000" math="0" shadow="0">
      <root>
        <mxCell id="MB-lbPW1hrkOePoblKgB-0" />
        <mxCell id="MB-lbPW1hrkOePoblKgB-1" parent="MB-lbPW1hrkOePoblKgB-0" />
        <mxCell id="368Pp9d79RKLIdvi4CF7-10" style="edgeStyle=none;curved=1;rounded=0;orthogonalLoop=1;jettySize=auto;html=1;entryX=0;entryY=0.5;entryDx=0;entryDy=0;fontSize=12;startSize=8;endSize=8;strokeColor=#FFFFFF;" edge="1" parent="MB-lbPW1hrkOePoblKgB-1" source="MB-lbPW1hrkOePoblKgB-20" target="368Pp9d79RKLIdvi4CF7-0">
          <mxGeometry relative="1" as="geometry" />
        </mxCell>
        <mxCell id="MB-lbPW1hrkOePoblKgB-20" value="Bluetooth Modülünü İlk Ayarlama" style="rounded=1;whiteSpace=wrap;html=1;labelBackgroundColor=none;fillColor=#647687;strokeColor=#314354;fontColor=#ffffff;" vertex="1" parent="MB-lbPW1hrkOePoblKgB-1">
          <mxGeometry x="360" y="240" width="120" height="80" as="geometry" />
        </mxCell>
        <mxCell id="368Pp9d79RKLIdvi4CF7-11" style="edgeStyle=none;curved=1;rounded=0;orthogonalLoop=1;jettySize=auto;html=1;entryX=0;entryY=0.5;entryDx=0;entryDy=0;fontSize=12;startSize=8;endSize=8;strokeColor=#FFFFFF;" edge="1" parent="MB-lbPW1hrkOePoblKgB-1" source="368Pp9d79RKLIdvi4CF7-0" target="368Pp9d79RKLIdvi4CF7-1">
          <mxGeometry relative="1" as="geometry" />
        </mxCell>
        <mxCell id="368Pp9d79RKLIdvi4CF7-0" value="Bluetooth Bağlantıları Tarama" style="rounded=1;whiteSpace=wrap;html=1;labelBackgroundColor=none;fillColor=#647687;strokeColor=#314354;fontColor=#ffffff;" vertex="1" parent="MB-lbPW1hrkOePoblKgB-1">
          <mxGeometry x="520" y="240" width="120" height="80" as="geometry" />
        </mxCell>
        <mxCell id="368Pp9d79RKLIdvi4CF7-12" style="edgeStyle=none;curved=1;rounded=0;orthogonalLoop=1;jettySize=auto;html=1;exitX=1;exitY=0.5;exitDx=0;exitDy=0;entryX=0;entryY=0.5;entryDx=0;entryDy=0;fontSize=12;startSize=8;endSize=8;strokeColor=#FFFFFF;" edge="1" parent="MB-lbPW1hrkOePoblKgB-1" source="368Pp9d79RKLIdvi4CF7-1" target="368Pp9d79RKLIdvi4CF7-2">
          <mxGeometry relative="1" as="geometry" />
        </mxCell>
        <mxCell id="368Pp9d79RKLIdvi4CF7-1" value="Cihaz Seçimi ve Eşleştirme" style="rounded=1;whiteSpace=wrap;html=1;labelBackgroundColor=none;fillColor=#647687;strokeColor=#314354;fontColor=#ffffff;" vertex="1" parent="MB-lbPW1hrkOePoblKgB-1">
          <mxGeometry x="680" y="240" width="120" height="80" as="geometry" />
        </mxCell>
        <mxCell id="368Pp9d79RKLIdvi4CF7-13" style="edgeStyle=none;curved=1;rounded=0;orthogonalLoop=1;jettySize=auto;html=1;entryX=0.5;entryY=0;entryDx=0;entryDy=0;fontSize=12;startSize=8;endSize=8;strokeColor=#FFFFFF;" edge="1" parent="MB-lbPW1hrkOePoblKgB-1" source="368Pp9d79RKLIdvi4CF7-2" target="368Pp9d79RKLIdvi4CF7-3">
          <mxGeometry relative="1" as="geometry" />
        </mxCell>
        <mxCell id="368Pp9d79RKLIdvi4CF7-2" value="Bluetooth Bağlantısını Kurma" style="rounded=1;whiteSpace=wrap;html=1;labelBackgroundColor=none;fillColor=#647687;strokeColor=#314354;fontColor=#ffffff;" vertex="1" parent="MB-lbPW1hrkOePoblKgB-1">
          <mxGeometry x="840" y="240" width="120" height="80" as="geometry" />
        </mxCell>
        <mxCell id="368Pp9d79RKLIdvi4CF7-14" style="edgeStyle=none;curved=1;rounded=0;orthogonalLoop=1;jettySize=auto;html=1;exitX=0;exitY=0.5;exitDx=0;exitDy=0;fontSize=12;startSize=8;endSize=8;" edge="1" parent="MB-lbPW1hrkOePoblKgB-1" source="368Pp9d79RKLIdvi4CF7-3">
          <mxGeometry relative="1" as="geometry">
            <mxPoint x="839.7586206896551" y="400" as="targetPoint" />
          </mxGeometry>
        </mxCell>
        <mxCell id="368Pp9d79RKLIdvi4CF7-15" style="edgeStyle=none;curved=1;rounded=0;orthogonalLoop=1;jettySize=auto;html=1;entryX=1;entryY=0.5;entryDx=0;entryDy=0;fontSize=12;startSize=8;endSize=8;strokeColor=#FFFFFF;" edge="1" parent="MB-lbPW1hrkOePoblKgB-1" source="368Pp9d79RKLIdvi4CF7-3" target="368Pp9d79RKLIdvi4CF7-4">
          <mxGeometry relative="1" as="geometry" />
        </mxCell>
        <mxCell id="368Pp9d79RKLIdvi4CF7-3" value="Veri Gönderme İçin Komut Girişi" style="rounded=1;whiteSpace=wrap;html=1;labelBackgroundColor=none;fillColor=#647687;strokeColor=#314354;fontColor=#ffffff;" vertex="1" parent="MB-lbPW1hrkOePoblKgB-1">
          <mxGeometry x="840" y="360" width="120" height="80" as="geometry" />
        </mxCell>
        <mxCell id="368Pp9d79RKLIdvi4CF7-16" style="edgeStyle=none;curved=1;rounded=0;orthogonalLoop=1;jettySize=auto;html=1;entryX=1;entryY=0.5;entryDx=0;entryDy=0;fontSize=12;startSize=8;endSize=8;strokeColor=#FFFFFF;" edge="1" parent="MB-lbPW1hrkOePoblKgB-1" source="368Pp9d79RKLIdvi4CF7-4" target="368Pp9d79RKLIdvi4CF7-5">
          <mxGeometry relative="1" as="geometry" />
        </mxCell>
        <mxCell id="368Pp9d79RKLIdvi4CF7-4" value="Veri Paketleme ve Gönderme" style="rounded=1;whiteSpace=wrap;html=1;labelBackgroundColor=none;fillColor=#647687;strokeColor=#314354;fontColor=#ffffff;" vertex="1" parent="MB-lbPW1hrkOePoblKgB-1">
          <mxGeometry x="680" y="360" width="120" height="80" as="geometry" />
        </mxCell>
        <mxCell id="368Pp9d79RKLIdvi4CF7-17" style="edgeStyle=none;curved=1;rounded=0;orthogonalLoop=1;jettySize=auto;html=1;entryX=1;entryY=0.5;entryDx=0;entryDy=0;fontSize=12;startSize=8;endSize=8;strokeColor=#FFFFFF;" edge="1" parent="MB-lbPW1hrkOePoblKgB-1" source="368Pp9d79RKLIdvi4CF7-5" target="368Pp9d79RKLIdvi4CF7-7">
          <mxGeometry relative="1" as="geometry" />
        </mxCell>
        <mxCell id="368Pp9d79RKLIdvi4CF7-5" value="Arduino tarafında Bluetooth Alımı" style="rounded=1;whiteSpace=wrap;html=1;labelBackgroundColor=none;fillColor=#647687;strokeColor=#314354;fontColor=#ffffff;" vertex="1" parent="MB-lbPW1hrkOePoblKgB-1">
          <mxGeometry x="520" y="360" width="120" height="80" as="geometry" />
        </mxCell>
        <mxCell id="368Pp9d79RKLIdvi4CF7-7" value="Arduino tarafından Yanıt Gönderme" style="rounded=1;whiteSpace=wrap;html=1;labelBackgroundColor=none;fillColor=#647687;strokeColor=#314354;fontColor=#ffffff;" vertex="1" parent="MB-lbPW1hrkOePoblKgB-1">
          <mxGeometry x="360" y="360" width="120" height="80" as="geometry" />
        </mxCell>
        <mxCell id="368Pp9d79RKLIdvi4CF7-8" value="Gelen Veriyi Gösterme" style="rounded=1;whiteSpace=wrap;html=1;labelBackgroundColor=none;fillColor=#647687;strokeColor=#314354;fontColor=#ffffff;" vertex="1" parent="MB-lbPW1hrkOePoblKgB-1">
          <mxGeometry x="680" y="480" width="120" height="80" as="geometry" />
        </mxCell>
        <mxCell id="368Pp9d79RKLIdvi4CF7-19" style="edgeStyle=none;curved=1;rounded=0;orthogonalLoop=1;jettySize=auto;html=1;entryX=0;entryY=0.5;entryDx=0;entryDy=0;fontSize=12;startSize=8;endSize=8;strokeColor=#FFFFFF;" edge="1" parent="MB-lbPW1hrkOePoblKgB-1" source="368Pp9d79RKLIdvi4CF7-9" target="368Pp9d79RKLIdvi4CF7-8">
          <mxGeometry relative="1" as="geometry" />
        </mxCell>
        <mxCell id="368Pp9d79RKLIdvi4CF7-9" value="Bağlantı Kontrolleri" style="rounded=1;whiteSpace=wrap;html=1;labelBackgroundColor=none;fillColor=#647687;strokeColor=#314354;fontColor=#ffffff;" vertex="1" parent="MB-lbPW1hrkOePoblKgB-1">
          <mxGeometry x="520" y="480" width="120" height="80" as="geometry" />
        </mxCell>
        <mxCell id="368Pp9d79RKLIdvi4CF7-18" style="edgeStyle=elbowEdgeStyle;rounded=0;orthogonalLoop=1;jettySize=auto;html=1;entryX=0;entryY=0.5;entryDx=0;entryDy=0;fontSize=12;startSize=8;endSize=8;strokeColor=#FFFFFF;elbow=vertical;" edge="1" parent="MB-lbPW1hrkOePoblKgB-1" source="368Pp9d79RKLIdvi4CF7-7" target="368Pp9d79RKLIdvi4CF7-9">
          <mxGeometry relative="1" as="geometry">
            <Array as="points">
              <mxPoint x="420" y="520" />
            </Array>
          </mxGeometry>
        </mxCell>
      </root>
    </mxGraphModel>
  </diagram>
</mxfile>
